<svg id="visual" viewBox="0 0 600 900" width="600" height="900" xmlns="http://www.w3.org/2000/svg" xmlns:xlink="http://www.w3.org/1999/xlink" version="1.1"><g><g transform="translate(447 91)"><path d="M0 -103.3L73 -73L103.3 0L73 73L0 103.3L-73 73L-103.3 0L-73 -73Z" fill="#00a2ff"></path></g><g transform="translate(486 348)"><path d="M0 -45L31.8 -31.8L45 0L31.8 31.8L0 45L-31.8 31.8L-45 0L-31.8 -31.8Z" fill="#00a2ff"></path></g><g transform="translate(395 565)"><path d="M0 -82L58 -58L82 0L58 58L0 82L-58 58L-82 0L-58 -58Z" fill="#00a2ff"></path></g><g transform="translate(4 339)"><path d="M0 -38L26.9 -26.9L38 0L26.9 26.9L0 38L-26.9 26.9L-38 0L-26.9 -26.9Z" fill="#00a2ff"></path></g><g transform="translate(529 754)"><path d="M0 -68L48.1 -48.1L68 0L48.1 48.1L0 68L-48.1 48.1L-68 0L-48.1 -48.1Z" fill="#00a2ff"></path></g><g transform="translate(4 586)"><path d="M0 -42L29.7 -29.7L42 0L29.7 29.7L0 42L-29.7 29.7L-42 0L-29.7 -29.7Z" fill="#00a2ff"></path></g><g transform="translate(145 100)"><path d="M0 -77L54.4 -54.4L77 0L54.4 54.4L0 77L-54.4 54.4L-77 0L-54.4 -54.4Z" fill="#00a2ff"></path></g><g transform="translate(238 365)"><path d="M0 -83L58.7 -58.7L83 0L58.7 58.7L0 83L-58.7 58.7L-83 0L-58.7 -58.7Z" fill="#00a2ff"></path></g><g transform="translate(281 878)"><path d="M0 -102L72.1 -72.1L102 0L72.1 72.1L0 102L-72.1 72.1L-102 0L-72.1 -72.1Z" fill="#00a2ff"></path></g><g transform="translate(54 857)"><path d="M0 -40L28.3 -28.3L40 0L28.3 28.3L0 40L-28.3 28.3L-40 0L-28.3 -28.3Z" fill="#00a2ff"></path></g><g transform="translate(215 674)"><path d="M0 -61L43.1 -43.1L61 0L43.1 43.1L0 61L-43.1 43.1L-61 0L-43.1 -43.1Z" fill="#00a2ff"></path></g></g></svg>