<?xml version="1.0" encoding="utf-8"?>
<svg xmlns="http://www.w3.org/2000/svg" xmlns:xlink="http://www.w3.org/1999/xlink" style="margin: auto; background: none; display: block; z-index: 1; position: relative; shape-rendering: auto;" width="1929" height="1299" preserveAspectRatio="xMidYMid" viewBox="0 0 1929 1299">
<g transform="translate(964.5,649.5) scale(1,1) translate(-964.5,-649.5)"><defs>
  <path id="path-6u6ouax6xx2-1" d="M-35 -35L35 -35L35 35L-35 35Z" fill="none" stroke="inherit" stroke-width="4.333333333333334" transform="scale(0.3)"></path>
  <path id="path-6u6ouax6xx2-2" d="M0 -37A37 37 0 0 1 0 37A37 37 0 0 1 0 -37" fill="none" stroke="inherit" stroke-width="4.333333333333334" transform="scale(0.3)"></path>
  <path id="path-6u6ouax6xx2-3" d="M0 -34.641L40 34.641L-40 34.641Z" fill="none" stroke="inherit" stroke-width="4.333333333333334" transform="scale(0.3)"></path>
</defs><path id="path0" d="M 62.659688671684236 947.6468061441828
c 0 40.393647299033084 -9.883551998699584 11.602430607169078 -21.48598260586866 11.602430607169078
S 19.68772345994692 988.0404534432159 19.68772345994692 947.6468061441828
s 9.883551998699584 -11.602430607169078 21.48598260586866 -11.602430607169078
S 62.659688671684236 907.2531588451498 62.659688671684236 947.6468061441828
z" fill="none" stroke="none"></path>
<use xlink:href="#path-6u6ouax6xx2-1" x="0" y="0" stroke="#007dfb">
  <animateMotion begin="-3.67569599692172s" dur="7.8125s" keyPoints="1;0" keyTimes="0;1" repeatCount="indefinite" calcMode="linear">
    <mpath xlink:href="#path0"></mpath>
  </animateMotion>
</use><path id="path1" d="M 63.25442501334109 214.53747524962682
c 0 26.83201910065216 -6.565281269308507 7.7070693161447705 -14.272350585453278 7.7070693161447705
S 34.70972384243453 241.36949435027898 34.70972384243453 214.53747524962682
s 6.565281269308507 -7.7070693161447705 14.272350585453278 -7.7070693161447705
S 63.25442501334109 187.70545614897466 63.25442501334109 214.53747524962682
z" fill="none" stroke="none"></path>
<use xlink:href="#path-6u6ouax6xx2-2" x="0" y="0" stroke="#5400ff">
  <animateMotion begin="-1.5158252069143279s" dur="7.8125s" keyPoints="0;1" keyTimes="0;1" repeatCount="indefinite" calcMode="linear">
    <mpath xlink:href="#path1"></mpath>
  </animateMotion>
</use><path id="path2" d="M 77.08311231631009 700.480640680886
c 0 21.950559368773373 -5.37088154767859 6.304947903796607 -11.675829451475197 6.304947903796607
S 53.7314534133597 722.4312000496594 53.7314534133597 700.480640680886
s 5.37088154767859 -6.304947903796607 11.675829451475197 -6.304947903796607
S 77.08311231631009 678.5300813121127 77.08311231631009 700.480640680886
z" fill="none" stroke="none"></path>
<use xlink:href="#path-6u6ouax6xx2-3" x="0" y="0" stroke="#00ffaa">
  <animateMotion begin="-4.323972612243668s" dur="7.8125s" keyPoints="1;0" keyTimes="0;1" repeatCount="indefinite" calcMode="linear">
    <mpath xlink:href="#path2"></mpath>
  </animateMotion>
</use><path id="path3" d="M 106.94914316763014 676.0954798368228
c 0 46.69704498602527 -11.425872709346606 13.412981006624278 -24.838853715970885 13.412981006624278
S 57.27143573568837 722.7925248228481 57.27143573568837 676.0954798368228
s 11.425872709346606 -13.412981006624278 24.838853715970885 -13.412981006624278
S 106.94914316763014 629.3984348507976 106.94914316763014 676.0954798368228
z" fill="none" stroke="none"></path>
<use xlink:href="#path-6u6ouax6xx2-2" x="0" y="0" stroke="#5400ff">
  <animateMotion begin="-1.3908899365053882s" dur="7.8125s" keyPoints="1;0" keyTimes="0;1" repeatCount="indefinite" calcMode="linear">
    <mpath xlink:href="#path3"></mpath>
  </animateMotion>
</use><path id="path4" d="M 132.4155065247588 88.12938443351072
c 0 37.40128114888885 -9.151377302387695 10.742921181063817 -19.894298483451514 10.742921181063817
S 92.62690955785575 125.53066558239956 92.62690955785575 88.12938443351072
s 9.151377302387695 -10.742921181063817 19.894298483451514 -10.742921181063817
S 132.4155065247588 50.728103284621874 132.4155065247588 88.12938443351072
z" fill="none" stroke="none"></path>
<use xlink:href="#path-6u6ouax6xx2-3" x="0" y="0" stroke="#5400ff">
  <animateMotion begin="-0.13901014266470488s" dur="7.8125s" keyPoints="0;1" keyTimes="0;1" repeatCount="indefinite" calcMode="linear">
    <mpath xlink:href="#path4"></mpath>
  </animateMotion>
</use><path id="path5" d="M 129.05599054136567 582.9494306180677
c 0 27.639671494254262 -6.762898344338809 7.939054578136863 -14.701952922475671 7.939054578136863
S 99.65208469641433 610.5891021123219 99.65208469641433 582.9494306180677
s 6.762898344338809 -7.939054578136863 14.701952922475671 -7.939054578136863
S 129.05599054136567 555.3097591238135 129.05599054136567 582.9494306180677
z" fill="none" stroke="none"></path>
<use xlink:href="#path-6u6ouax6xx2-3" x="0" y="0" stroke="#007dfb">
  <animateMotion begin="-5.628496109509667s" dur="7.8125s" keyPoints="0;1" keyTimes="0;1" repeatCount="indefinite" calcMode="linear">
    <mpath xlink:href="#path5"></mpath>
  </animateMotion>
</use><path id="path6" d="M 155.47654401853035 537.0990030620584
c 0 41.05343780353605 -10.044990100865203 11.791944901015674 -21.836935001880878 11.791944901015674
S 111.8026740147686 578.1524408655945 111.8026740147686 537.0990030620584
s 10.044990100865203 -11.791944901015674 21.836935001880878 -11.791944901015674
S 155.47654401853035 496.04556525852234 155.47654401853035 537.0990030620584
z" fill="none" stroke="none"></path>
<use xlink:href="#path-6u6ouax6xx2-2" x="0" y="0" stroke="#00ffaa">
  <animateMotion begin="-2.113502619165465s" dur="7.8125s" keyPoints="0;1" keyTimes="0;1" repeatCount="indefinite" calcMode="linear">
    <mpath xlink:href="#path6"></mpath>
  </animateMotion>
</use><path id="path7" d="M 186.64190261920754 503.44360852742363
c 0 65.09769494031364 -15.928159400289505 18.698274078600726 -34.626433478890235 18.698274078600726
S 117.38903566142709 568.5413034677373 117.38903566142709 503.44360852742363
s 15.928159400289505 -18.698274078600726 34.626433478890235 -18.698274078600726
S 186.64190261920754 438.34591358711 186.64190261920754 503.44360852742363
z" fill="none" stroke="none"></path>
<use xlink:href="#path-6u6ouax6xx2-3" x="0" y="0" stroke="#5400ff">
  <animateMotion begin="-6.973646664564463s" dur="7.8125s" keyPoints="1;0" keyTimes="0;1" repeatCount="indefinite" calcMode="linear">
    <mpath xlink:href="#path7"></mpath>
  </animateMotion>
</use><path id="path8" d="M 205.15853456508304 391.1578966664117
c 0 51.60352212143154 -12.626393710563034 14.822288268921826 -27.44868197948486 14.822288268921826
S 150.26117060611332 442.76141878784324 150.26117060611332 391.1578966664117
s 12.626393710563034 -14.822288268921826 27.44868197948486 -14.822288268921826
S 205.15853456508304 339.5543745449802 205.15853456508304 391.1578966664117
z" fill="none" stroke="none"></path>
<use xlink:href="#path-6u6ouax6xx2-1" x="0" y="0" stroke="#00ffaa">
  <animateMotion begin="-6.946921186569019s" dur="7.8125s" keyPoints="1;0" keyTimes="0;1" repeatCount="indefinite" calcMode="linear">
    <mpath xlink:href="#path8"></mpath>
  </animateMotion>
</use><path id="path9" d="M 217.14264489774376 487.98211007797704
c 0 22.053336895223048 -5.396029240320533 6.334469108202365 -11.730498348522897 6.334469108202365
S 193.68164820069796 510.03544697320007 193.68164820069796 487.98211007797704
s 5.396029240320533 -6.334469108202365 11.730498348522897 -6.334469108202365
S 217.14264489774376 465.928773182754 217.14264489774376 487.98211007797704
z" fill="none" stroke="none"></path>
<use xlink:href="#path-6u6ouax6xx2-1" x="0" y="0" stroke="#007dfb">
  <animateMotion begin="-5.937565195565627s" dur="7.8125s" keyPoints="0;1" keyTimes="0;1" repeatCount="indefinite" calcMode="linear">
    <mpath xlink:href="#path9"></mpath>
  </animateMotion>
</use><path id="path10" d="M 244.71261378923313 357.6186296289607
c 0 62.29968809157805 -15.243540703258455 17.894591260346886 -33.13813196360534 17.894591260346886
S 178.43634986202247 419.91831772053877 178.43634986202247 357.6186296289607
s 15.243540703258455 -17.894591260346886 33.13813196360534 -17.894591260346886
S 244.71261378923313 295.31894153738267 244.71261378923313 357.6186296289607
z" fill="none" stroke="none"></path>
<use xlink:href="#path-6u6ouax6xx2-2" x="0" y="0" stroke="#007dfb">
  <animateMotion begin="-0.9085826133273124s" dur="7.8125s" keyPoints="1;0" keyTimes="0;1" repeatCount="indefinite" calcMode="linear">
    <mpath xlink:href="#path10"></mpath>
  </animateMotion>
</use><path id="path11" d="M 270.39133864385735 824.2537214422944
c 0 64.20259306336801 -15.709145111249619 18.441170347988685 -34.15031545923831 18.441170347988685
S 202.09070772538075 888.4563145056624 202.09070772538075 824.2537214422944
s 15.709145111249619 -18.441170347988685 34.15031545923831 -18.441170347988685
S 270.39133864385735 760.0511283789264 270.39133864385735 824.2537214422944
z" fill="none" stroke="none"></path>
<use xlink:href="#path-6u6ouax6xx2-3" x="0" y="0" stroke="#007dfb">
  <animateMotion begin="-6.378885601744436s" dur="7.8125s" keyPoints="0;1" keyTimes="0;1" repeatCount="indefinite" calcMode="linear">
    <mpath xlink:href="#path11"></mpath>
  </animateMotion>
</use><path id="path12" d="M 278.4469202825981 1158.1495932497157
c 0 22.778516303399932 -5.573466755087217 6.542765321189342 -12.116232076276559 6.542765321189342
S 254.214456130045 1180.9281095531157 254.214456130045 1158.1495932497157
s 5.573466755087217 -6.542765321189342 12.116232076276559 -6.542765321189342
S 278.4469202825981 1135.3710769463157 278.4469202825981 1158.1495932497157
z" fill="none" stroke="none"></path>
<use xlink:href="#path-6u6ouax6xx2-2" x="0" y="0" stroke="#5400ff">
  <animateMotion begin="-0.4076887648095072s" dur="7.8125s" keyPoints="0;1" keyTimes="0;1" repeatCount="indefinite" calcMode="linear">
    <mpath xlink:href="#path12"></mpath>
  </animateMotion>
</use><path id="path13" d="M 308.7490404157038 272.6623846003969
c 0 45.37988413171819 -11.10358867052679 13.034647569748842 -24.13823624027563 13.034647569748842
S 260.4725679351525 318.0422687321151 260.4725679351525 272.6623846003969
s 11.10358867052679 -13.034647569748842 24.13823624027563 -13.034647569748842
S 308.7490404157038 227.28250046867868 308.7490404157038 272.6623846003969
z" fill="none" stroke="none"></path>
<use xlink:href="#path-6u6ouax6xx2-3" x="0" y="0" stroke="#5400ff">
  <animateMotion begin="-7.802007669711961s" dur="7.8125s" keyPoints="1;0" keyTimes="0;1" repeatCount="indefinite" calcMode="linear">
    <mpath xlink:href="#path13"></mpath>
  </animateMotion>
</use><path id="path14" d="M 317.24210861725885 1236.819509271533
c 0 60.98072061658117 -14.920814618950711 17.51573890050736 -32.43655351945807 17.51573890050736
S 252.3690015783427 1297.8002298881142 252.3690015783427 1236.819509271533
s 14.920814618950711 -17.51573890050736 32.43655351945807 -17.51573890050736
S 317.24210861725885 1175.8387886549517 317.24210861725885 1236.819509271533
z" fill="none" stroke="none"></path>
<use xlink:href="#path-6u6ouax6xx2-1" x="0" y="0" stroke="#007dfb">
  <animateMotion begin="-7.6413638782091855s" dur="7.8125s" keyPoints="0;1" keyTimes="0;1" repeatCount="indefinite" calcMode="linear">
    <mpath xlink:href="#path14"></mpath>
  </animateMotion>
</use><path id="path15" d="M 343.27409627491494 698.6784289323937
c 0 53.4328303370329 -13.07399040161443 15.347727862764769 -28.421718264379198 15.347727862764769
S 286.43065974615655 752.1112592694266 286.43065974615655 698.6784289323937
s 13.07399040161443 -15.347727862764769 28.421718264379198 -15.347727862764769
S 343.27409627491494 645.2455985953608 343.27409627491494 698.6784289323937
z" fill="none" stroke="none"></path>
<use xlink:href="#path-6u6ouax6xx2-3" x="0" y="0" stroke="#00ffaa">
  <animateMotion begin="-1.1096060598516904s" dur="7.8125s" keyPoints="1;0" keyTimes="0;1" repeatCount="indefinite" calcMode="linear">
    <mpath xlink:href="#path15"></mpath>
  </animateMotion>
</use><path id="path16" d="M 351.532096378377 92.2019732677554
c 0 45.894815882284746 -11.229582609495203 13.182553498103067 -24.412136107598272 13.182553498103067
S 302.7078241631805 138.09678915004014 302.7078241631805 92.2019732677554
s 11.229582609495203 -13.182553498103067 24.412136107598272 -13.182553498103067
S 351.532096378377 46.30715738547066 351.532096378377 92.2019732677554
z" fill="none" stroke="none"></path>
<use xlink:href="#path-6u6ouax6xx2-1" x="0" y="0" stroke="#007dfb">
  <animateMotion begin="-7.1779673947688485s" dur="7.8125s" keyPoints="0;1" keyTimes="0;1" repeatCount="indefinite" calcMode="linear">
    <mpath xlink:href="#path16"></mpath>
  </animateMotion>
</use><path id="path17" d="M 375.7083534522572 485.4792057679694
c 0 27.375989317556943 -6.6983803649341445 7.863316080574867 -14.56169644550901 7.863316080574867
S 346.58496056123914 512.8551950855264 346.58496056123914 485.4792057679694
s 6.6983803649341445 -7.863316080574867 14.56169644550901 -7.863316080574867
S 375.7083534522572 458.10321645041245 375.7083534522572 485.4792057679694
z" fill="none" stroke="none"></path>
<use xlink:href="#path-6u6ouax6xx2-3" x="0" y="0" stroke="#5400ff">
  <animateMotion begin="-6.384102410194882s" dur="7.8125s" keyPoints="1;0" keyTimes="0;1" repeatCount="indefinite" calcMode="linear">
    <mpath xlink:href="#path17"></mpath>
  </animateMotion>
</use><path id="path18" d="M 396.6234264295316 1108.2777987220816
c 0 45.75706293057335 -11.195877100033902 13.142986160909366 -24.33886326094327 13.142986160909366
S 347.9456999076451 1154.0348616526549 347.9456999076451 1108.2777987220816
s 11.195877100033902 -13.142986160909366 24.33886326094327 -13.142986160909366
S 396.6234264295316 1062.5207357915083 396.6234264295316 1108.2777987220816
z" fill="none" stroke="none"></path>
<use xlink:href="#path-6u6ouax6xx2-1" x="0" y="0" stroke="#5400ff">
  <animateMotion begin="-2.2899406715089743s" dur="7.8125s" keyPoints="1;0" keyTimes="0;1" repeatCount="indefinite" calcMode="linear">
    <mpath xlink:href="#path18"></mpath>
  </animateMotion>
</use><path id="path19" d="M 409.9834367419487 323.7006982854581
c 0 46.45980234351743 -11.367823977669158 13.344836843350752 -24.71266082101991 13.344836843350752
S 360.55811509990895 370.1605006289755 360.55811509990895 323.7006982854581
s 11.367823977669158 -13.344836843350752 24.71266082101991 -13.344836843350752
S 409.9834367419487 277.24089594194066 409.9834367419487 323.7006982854581
z" fill="none" stroke="none"></path>
<use xlink:href="#path-6u6ouax6xx2-3" x="0" y="0" stroke="#5400ff">
  <animateMotion begin="-4.219833823446621s" dur="7.8125s" keyPoints="0;1" keyTimes="0;1" repeatCount="indefinite" calcMode="linear">
    <mpath xlink:href="#path19"></mpath>
  </animateMotion>
</use><path id="path20" d="M 421.8425567304833 141.4296316831413
c 0 33.138589400005436 -8.108378257448138 9.518530997873901 -17.62690925532204 9.518530997873901
S 386.5887382198392 174.56822108314674 386.5887382198392 141.4296316831413
s 8.108378257448138 -9.518530997873901 17.62690925532204 -9.518530997873901
S 421.8425567304833 108.29104228313588 421.8425567304833 141.4296316831413
z" fill="none" stroke="none"></path>
<use xlink:href="#path-6u6ouax6xx2-3" x="0" y="0" stroke="#007dfb">
  <animateMotion begin="-0.25076276425947847s" dur="7.8125s" keyPoints="1;0" keyTimes="0;1" repeatCount="indefinite" calcMode="linear">
    <mpath xlink:href="#path20"></mpath>
  </animateMotion>
</use><path id="path21" d="M 452.32044381838256 186.21021353163
c 0 48.3685661289474 -11.834861925167978 13.893098781718933 -25.72796070688691 13.893098781718933
S 400.86452240460875 234.5787796605774 400.86452240460875 186.21021353163
s 11.834861925167978 -13.893098781718933 25.72796070688691 -13.893098781718933
S 452.32044381838256 137.84164740268258 452.32044381838256 186.21021353163
z" fill="none" stroke="none"></path>
<use xlink:href="#path-6u6ouax6xx2-3" x="0" y="0" stroke="#00ffaa">
  <animateMotion begin="-6.443021009499492s" dur="7.8125s" keyPoints="1;0" keyTimes="0;1" repeatCount="indefinite" calcMode="linear">
    <mpath xlink:href="#path21"></mpath>
  </animateMotion>
</use><path id="path22" d="M 460.6193768006607 177.15624806486892
c 0 24.347206614603326 -5.957295235488048 6.993346580790318 -12.950641816278365 6.993346580790318
S 434.7180931681039 201.50345467947224 434.7180931681039 177.15624806486892
s 5.957295235488048 -6.993346580790318 12.950641816278365 -6.993346580790318
S 460.6193768006607 152.8090414502656 460.6193768006607 177.15624806486892
z" fill="none" stroke="none"></path>
<use xlink:href="#path-6u6ouax6xx2-1" x="0" y="0" stroke="#5400ff">
  <animateMotion begin="-6.224101086009503s" dur="7.8125s" keyPoints="1;0" keyTimes="0;1" repeatCount="indefinite" calcMode="linear">
    <mpath xlink:href="#path22"></mpath>
  </animateMotion>
</use><path id="path23" d="M 483.321993947086 1085.7226193411648
c 0 23.939518281010788 -5.85754170705583 6.876244612630758 -12.733786319686589 6.876244612630758
S 457.8544213077128 1109.6621376221756 457.8544213077128 1085.7226193411648
s 5.85754170705583 -6.876244612630758 12.733786319686589 -6.876244612630758
S 483.321993947086 1061.783101060154 483.321993947086 1085.7226193411648
z" fill="none" stroke="none"></path>
<use xlink:href="#path-6u6ouax6xx2-1" x="0" y="0" stroke="#5400ff">
  <animateMotion begin="-4.344406277647513s" dur="7.8125s" keyPoints="0;1" keyTimes="0;1" repeatCount="indefinite" calcMode="linear">
    <mpath xlink:href="#path23"></mpath>
  </animateMotion>
</use><path id="path24" d="M 491.23851324908645 1189.3750743369023
c 0 19.247076134900645 -4.709390969177817 5.528415485556569 -10.237806454734386 5.528415485556569
S 470.7629003396177 1208.622150471803 470.7629003396177 1189.3750743369023
s 4.709390969177817 -5.528415485556569 10.237806454734386 -5.528415485556569
S 491.23851324908645 1170.1279982020017 491.23851324908645 1189.3750743369023
z" fill="none" stroke="none"></path>
<use xlink:href="#path-6u6ouax6xx2-1" x="0" y="0" stroke="#5400ff">
  <animateMotion begin="-2.560454317428311s" dur="7.8125s" keyPoints="1;0" keyTimes="0;1" repeatCount="indefinite" calcMode="linear">
    <mpath xlink:href="#path24"></mpath>
  </animateMotion>
</use><path id="path25" d="M 522.8450690348013 547.0763718621442
c 0 44.541312032755975 -10.898406135674334 12.79378111579161 -23.692187251465946 12.79378111579161
S 475.4606945318695 591.6176838949002 475.4606945318695 547.0763718621442
s 10.898406135674334 -12.79378111579161 23.692187251465946 -12.79378111579161
S 522.8450690348013 502.5350598293883 522.8450690348013 547.0763718621442
z" fill="none" stroke="none"></path>
<use xlink:href="#path-6u6ouax6xx2-3" x="0" y="0" stroke="#00ffaa">
  <animateMotion begin="-5.377144850542952s" dur="7.8125s" keyPoints="0;1" keyTimes="0;1" repeatCount="indefinite" calcMode="linear">
    <mpath xlink:href="#path25"></mpath>
  </animateMotion>
</use><path id="path26" d="M 554.1486914881013 105.22688879023363
c 0 51.40642084709782 -12.578166803013294 14.765674073102565 -27.34384087611586 14.765674073102565
S 499.4610097358696 156.63330963733145 499.4610097358696 105.22688879023363
s 12.578166803013294 -14.765674073102565 27.34384087611586 -14.765674073102565
S 554.1486914881013 53.82046794313581 554.1486914881013 105.22688879023363
z" fill="none" stroke="none"></path>
<use xlink:href="#path-6u6ouax6xx2-3" x="0" y="0" stroke="#007dfb">
  <animateMotion begin="-5.92181280516349s" dur="7.8125s" keyPoints="0;1" keyTimes="0;1" repeatCount="indefinite" calcMode="linear">
    <mpath xlink:href="#path26"></mpath>
  </animateMotion>
</use><path id="path27" d="M 561.5431597163786 1071.2211597192986
c 0 29.63821291474302 -7.251903159990312 8.513103709553846 -15.765006869544159 8.513103709553846
S 530.0131459772902 1100.8593726340416 530.0131459772902 1071.2211597192986
s 7.251903159990312 -8.513103709553846 15.765006869544159 -8.513103709553846
S 561.5431597163786 1041.5829468045556 561.5431597163786 1071.2211597192986
z" fill="none" stroke="none"></path>
<use xlink:href="#path-6u6ouax6xx2-3" x="0" y="0" stroke="#5400ff">
  <animateMotion begin="-5.765294331112303s" dur="7.8125s" keyPoints="0;1" keyTimes="0;1" repeatCount="indefinite" calcMode="linear">
    <mpath xlink:href="#path27"></mpath>
  </animateMotion>
</use><path id="path28" d="M 578.5571775406968 193.31263839797762
c 0 33.829990976152 -8.27755098352655 9.717125067618127 -17.99467605114468 9.717125067618127
S 542.5678254384075 227.14262937412963 542.5678254384075 193.31263839797762
s 8.27755098352655 -9.717125067618127 17.99467605114468 -9.717125067618127
S 578.5571775406968 159.48264742182562 578.5571775406968 193.31263839797762
z" fill="none" stroke="none"></path>
<use xlink:href="#path-6u6ouax6xx2-1" x="0" y="0" stroke="#007dfb">
  <animateMotion begin="-3.491919523253659s" dur="7.8125s" keyPoints="0;1" keyTimes="0;1" repeatCount="indefinite" calcMode="linear">
    <mpath xlink:href="#path28"></mpath>
  </animateMotion>
</use><path id="path29" d="M 616.9694273722652 662.3867262990609
c 0 59.82851554960599 -14.638892102563165 17.184786381269806 -31.82367848383297 17.184786381269806
S 553.3220704045992 722.2152418486669 553.3220704045992 662.3867262990609
s 14.638892102563165 -17.184786381269806 31.82367848383297 -17.184786381269806
S 616.9694273722652 602.5582107494549 616.9694273722652 662.3867262990609
z" fill="none" stroke="none"></path>
<use xlink:href="#path-6u6ouax6xx2-1" x="0" y="0" stroke="#00ffaa">
  <animateMotion begin="-1.0886152151822968s" dur="7.8125s" keyPoints="1;0" keyTimes="0;1" repeatCount="indefinite" calcMode="linear">
    <mpath xlink:href="#path29"></mpath>
  </animateMotion>
</use><path id="path30" d="M 622.6157353118105 142.10846364750108
c 0 57.41680277104864 -14.048792167384239 16.49206037040759 -30.540852537791828 16.49206037040759
S 561.5340302362268 199.52526641854973 561.5340302362268 142.10846364750108
s 14.048792167384239 -16.49206037040759 30.540852537791828 -16.49206037040759
S 622.6157353118105 84.69166087645245 622.6157353118105 142.10846364750108
z" fill="none" stroke="none"></path>
<use xlink:href="#path-6u6ouax6xx2-1" x="0" y="0" stroke="#00ffaa">
  <animateMotion begin="-1.690425548758586s" dur="7.8125s" keyPoints="0;1" keyTimes="0;1" repeatCount="indefinite" calcMode="linear">
    <mpath xlink:href="#path30"></mpath>
  </animateMotion>
</use><path id="path31" d="M 640.5530324112775 420.24187131443443
c 0 59.47954892370415 -14.55350665154463 17.084551286595875 -31.638057938140506 17.084551286595875
S 577.2769165349965 479.7214202381386 577.2769165349965 420.24187131443443
s 14.55350665154463 -17.084551286595875 31.638057938140506 -17.084551286595875
S 640.5530324112775 360.7623223907303 640.5530324112775 420.24187131443443
z" fill="none" stroke="none"></path>
<use xlink:href="#path-6u6ouax6xx2-3" x="0" y="0" stroke="#007dfb">
  <animateMotion begin="-3.9867186775870267s" dur="7.8125s" keyPoints="1;0" keyTimes="0;1" repeatCount="indefinite" calcMode="linear">
    <mpath xlink:href="#path31"></mpath>
  </animateMotion>
</use><path id="path32" d="M 673.6203173109656 656.2842741633939
c 0 64.54080905798958 -15.791900088657023 18.538317495379985 -34.33021758403701 18.538317495379985
S 604.9598821428916 720.8250832213835 604.9598821428916 656.2842741633939
s 15.791900088657023 -18.538317495379985 34.33021758403701 -18.538317495379985
S 673.6203173109656 591.7434651054043 673.6203173109656 656.2842741633939
z" fill="none" stroke="none"></path>
<use xlink:href="#path-6u6ouax6xx2-2" x="0" y="0" stroke="#007dfb">
  <animateMotion begin="-5.531247890118872s" dur="7.8125s" keyPoints="0;1" keyTimes="0;1" repeatCount="indefinite" calcMode="linear">
    <mpath xlink:href="#path32"></mpath>
  </animateMotion>
</use><path id="path33" d="M 659.6277027695837 1007.0957979093864
c 0 19.885368749656223 -4.865568949383969 5.71175485362466 -10.577323803008628 5.71175485362466
S 638.4730551635664 1026.9811666590426 638.4730551635664 1007.0957979093864
s 4.865568949383969 -5.71175485362466 10.577323803008628 -5.71175485362466
S 659.6277027695837 987.2104291597302 659.6277027695837 1007.0957979093864
z" fill="none" stroke="none"></path>
<use xlink:href="#path-6u6ouax6xx2-2" x="0" y="0" stroke="#00ffaa">
  <animateMotion begin="-6.2461187005417305s" dur="7.8125s" keyPoints="1;0" keyTimes="0;1" repeatCount="indefinite" calcMode="linear">
    <mpath xlink:href="#path33"></mpath>
  </animateMotion>
</use><path id="path34" d="M 700.7300461224643 713.380559674496
c 0 33.6345468983569 -8.229729560236262 9.660986875059962 -17.890716435296223 9.660986875059962
S 664.9486132518718 747.0151065728529 664.9486132518718 713.380559674496
s 8.229729560236262 -9.660986875059962 17.890716435296223 -9.660986875059962
S 700.7300461224643 679.7460127761391 700.7300461224643 713.380559674496
z" fill="none" stroke="none"></path>
<use xlink:href="#path-6u6ouax6xx2-1" x="0" y="0" stroke="#007dfb">
  <animateMotion begin="-3.6801683787711648s" dur="7.8125s" keyPoints="0;1" keyTimes="0;1" repeatCount="indefinite" calcMode="linear">
    <mpath xlink:href="#path34"></mpath>
  </animateMotion>
</use><path id="path35" d="M 698.6833887798458 387.303719067906
c 0 31.221583231638537 -7.639323556677513 8.967901566534474 -16.607225123211986 8.967901566534474
S 665.4689385334219 418.52530229954453 665.4689385334219 387.303719067906
s 7.639323556677513 -8.967901566534474 16.607225123211986 -8.967901566534474
S 698.6833887798458 356.08213583626747 698.6833887798458 387.303719067906
z" fill="none" stroke="none"></path>
<use xlink:href="#path-6u6ouax6xx2-2" x="0" y="0" stroke="#00ffaa">
  <animateMotion begin="-7.459712736963615s" dur="7.8125s" keyPoints="1;0" keyTimes="0;1" repeatCount="indefinite" calcMode="linear">
    <mpath xlink:href="#path35"></mpath>
  </animateMotion>
</use><path id="path36" d="M 718.3401548054012 981.975311137209
c 0 25.94783938654735 -6.348939424367968 7.45310280251892 -13.802042226886888 7.45310280251892
S 690.7360703516274 1007.9231505237564 690.7360703516274 981.975311137209
s 6.348939424367968 -7.45310280251892 13.802042226886888 -7.45310280251892
S 718.3401548054012 956.0274717506617 718.3401548054012 981.975311137209
z" fill="none" stroke="none"></path>
<use xlink:href="#path-6u6ouax6xx2-1" x="0" y="0" stroke="#00ffaa">
  <animateMotion begin="-3.713741303166953s" dur="7.8125s" keyPoints="0;1" keyTimes="0;1" repeatCount="indefinite" calcMode="linear">
    <mpath xlink:href="#path36"></mpath>
  </animateMotion>
</use><path id="path37" d="M 747.809319834276 811.7652527663483
c 0 40.025487673764786 -9.793470388261596 11.496682629698396 -21.29015301795999 11.496682629698396
S 705.2290137983562 851.7907404401132 705.2290137983562 811.7652527663483
s 9.793470388261596 -11.496682629698396 21.29015301795999 -11.496682629698396
S 747.809319834276 771.7397650925835 747.809319834276 811.7652527663483
z" fill="none" stroke="none"></path>
<use xlink:href="#path-6u6ouax6xx2-2" x="0" y="0" stroke="#00ffaa">
  <animateMotion begin="-2.4377951289460653s" dur="7.8125s" keyPoints="1;0" keyTimes="0;1" repeatCount="indefinite" calcMode="linear">
    <mpath xlink:href="#path37"></mpath>
  </animateMotion>
</use><path id="path38" d="M 777.2973042386359 307.90368230990583
c 0 60.93846893277739 -14.910476440998721 17.503602778563717 -32.41407921956244 17.503602778563717
S 712.4691457995111 368.8421512426832 712.4691457995111 307.90368230990583
s 14.910476440998721 -17.503602778563717 32.41407921956244 -17.503602778563717
S 777.2973042386359 246.96521337712844 777.2973042386359 307.90368230990583
z" fill="none" stroke="none"></path>
<use xlink:href="#path-6u6ouax6xx2-1" x="0" y="0" stroke="#5400ff">
  <animateMotion begin="-7.490881106048085s" dur="7.8125s" keyPoints="1;0" keyTimes="0;1" repeatCount="indefinite" calcMode="linear">
    <mpath xlink:href="#path38"></mpath>
  </animateMotion>
</use><path id="path39" d="M 790.8770971303975 313.0075150693851
c 0 38.49657047305643 -9.419373626386147 11.057525561409827 -20.476899187795972 11.057525561409827
S 749.9232987548055 351.5040855424415 749.9232987548055 313.0075150693851
s 9.419373626386147 -11.057525561409827 20.476899187795972 -11.057525561409827
S 790.8770971303975 274.51094459632867 790.8770971303975 313.0075150693851
z" fill="none" stroke="none"></path>
<use xlink:href="#path-6u6ouax6xx2-3" x="0" y="0" stroke="#5400ff">
  <animateMotion begin="-5.786491240982827s" dur="7.8125s" keyPoints="1;0" keyTimes="0;1" repeatCount="indefinite" calcMode="linear">
    <mpath xlink:href="#path39"></mpath>
  </animateMotion>
</use><path id="path40" d="M 818.8174062023711 1215.590486576313
c 0 58.50062375174848 -14.31398240734271 16.803370652097968 -31.117353059440678 16.803370652097968
S 756.5827000834897 1274.0911103280614 756.5827000834897 1215.590486576313
s 14.31398240734271 -16.803370652097968 31.117353059440678 -16.803370652097968
S 818.8174062023711 1157.0898628245645 818.8174062023711 1215.590486576313
z" fill="none" stroke="none"></path>
<use xlink:href="#path-6u6ouax6xx2-1" x="0" y="0" stroke="#007dfb">
  <animateMotion begin="-2.630022038847999s" dur="7.8125s" keyPoints="1;0" keyTimes="0;1" repeatCount="indefinite" calcMode="linear">
    <mpath xlink:href="#path40"></mpath>
  </animateMotion>
</use><path id="path41" d="M 842.1883156042319 1257.977763730412
c 0 58.31634435611439 -14.268892767985434 16.75043933633073 -31.019332104316163 16.75043933633073
S 780.1496513955996 1316.2941080865264 780.1496513955996 1257.977763730412
s 14.268892767985434 -16.75043933633073 31.019332104316163 -16.75043933633073
S 842.1883156042319 1199.6614193742978 842.1883156042319 1257.977763730412
z" fill="none" stroke="none"></path>
<use xlink:href="#path-6u6ouax6xx2-1" x="0" y="0" stroke="#00ffaa">
  <animateMotion begin="-6.431789578152764s" dur="7.8125s" keyPoints="1;0" keyTimes="0;1" repeatCount="indefinite" calcMode="linear">
    <mpath xlink:href="#path41"></mpath>
  </animateMotion>
</use><path id="path42" d="M 834.1491647737125 1138.77556864326
c 0 21.746697121602363 -5.321000359541003 6.2463917264177 -11.567392085958703 6.2463917264177
S 811.0143806017952 1160.5222657648624 811.0143806017952 1138.77556864326
s 5.321000359541003 -6.2463917264177 11.567392085958703 -6.2463917264177
S 834.1491647737125 1117.0288715216575 834.1491647737125 1138.77556864326
z" fill="none" stroke="none"></path>
<use xlink:href="#path-6u6ouax6xx2-1" x="0" y="0" stroke="#00ffaa">
  <animateMotion begin="-1.6861446937719917s" dur="7.8125s" keyPoints="0;1" keyTimes="0;1" repeatCount="indefinite" calcMode="linear">
    <mpath xlink:href="#path42"></mpath>
  </animateMotion>
</use><path id="path43" d="M 867.7587307409831 1019.0150414281765
c 0 41.37710665582135 -10.124185671105224 11.884913613906134 -22.00909928501136 11.884913613906134
S 823.7405321709605 1060.3921480839979 823.7405321709605 1019.0150414281765
s 10.124185671105224 -11.884913613906134 22.00909928501136 -11.884913613906134
S 867.7587307409831 977.6379347723552 867.7587307409831 1019.0150414281765
z" fill="none" stroke="none"></path>
<use xlink:href="#path-6u6ouax6xx2-1" x="0" y="0" stroke="#007dfb">
  <animateMotion begin="-1.3422981241830931s" dur="7.8125s" keyPoints="0;1" keyTimes="0;1" repeatCount="indefinite" calcMode="linear">
    <mpath xlink:href="#path43"></mpath>
  </animateMotion>
</use><path id="path44" d="M 872.0122406400706 788.249878815651
c 0 37.836871206578316 -9.257957848418098 10.868037474229942 -20.12599532264804 10.868037474229942
S 831.7602499947745 826.0867500222292 831.7602499947745 788.249878815651
s 9.257957848418098 -10.868037474229942 20.12599532264804 -10.868037474229942
S 872.0122406400706 750.4130076090727 872.0122406400706 788.249878815651
z" fill="none" stroke="none"></path>
<use xlink:href="#path-6u6ouax6xx2-1" x="0" y="0" stroke="#00ffaa">
  <animateMotion begin="-1.5471022051498935s" dur="7.8125s" keyPoints="0;1" keyTimes="0;1" repeatCount="indefinite" calcMode="linear">
    <mpath xlink:href="#path44"></mpath>
  </animateMotion>
</use><path id="path45" d="M 902.50805093392 861.1850132210732
c 0 35.1731039648919 -8.606185012686314 10.102912840979588 -18.709097853665902 10.102912840979588
S 865.0898552265883 896.358117185965 865.0898552265883 861.1850132210732
s 8.606185012686314 -10.102912840979588 18.709097853665902 -10.102912840979588
S 902.50805093392 826.0119092561813 902.50805093392 861.1850132210732
z" fill="none" stroke="none"></path>
<use xlink:href="#path-6u6ouax6xx2-2" x="0" y="0" stroke="#5400ff">
  <animateMotion begin="-5.5730014049032235s" dur="7.8125s" keyPoints="0;1" keyTimes="0;1" repeatCount="indefinite" calcMode="linear">
    <mpath xlink:href="#path45"></mpath>
  </animateMotion>
</use><path id="path46" d="M 914.8030830272085 547.5698744678778
c 0 43.61637656253018 -10.67209213764036 12.528108161577817 -23.200200299218178 12.528108161577817
S 868.4026824287721 591.1862510304079 868.4026824287721 547.5698744678778
s 10.67209213764036 -12.528108161577817 23.200200299218178 -12.528108161577817
S 914.8030830272085 503.9534979053476 914.8030830272085 547.5698744678778
z" fill="none" stroke="none"></path>
<use xlink:href="#path-6u6ouax6xx2-1" x="0" y="0" stroke="#00ffaa">
  <animateMotion begin="-0.98918064437006s" dur="7.8125s" keyPoints="0;1" keyTimes="0;1" repeatCount="indefinite" calcMode="linear">
    <mpath xlink:href="#path46"></mpath>
  </animateMotion>
</use><path id="path47" d="M 936.6760244295486 622.6414166330276
c 0 52.959178684810034 -12.958096912240752 15.211678983934798 -28.169775896175548 15.211678983934798
S 880.3364726371975 675.6005953178376 880.3364726371975 622.6414166330276
s 12.958096912240752 -15.211678983934798 28.169775896175548 -15.211678983934798
S 936.6760244295486 569.6822379482176 936.6760244295486 622.6414166330276
z" fill="none" stroke="none"></path>
<use xlink:href="#path-6u6ouax6xx2-1" x="0" y="0" stroke="#5400ff">
  <animateMotion begin="-2.4825098253345326s" dur="7.8125s" keyPoints="1;0" keyTimes="0;1" repeatCount="indefinite" calcMode="linear">
    <mpath xlink:href="#path47"></mpath>
  </animateMotion>
</use><path id="path48" d="M 960.069223965271 99.86886375845134
c 0 40.75057873053917 -9.970886285131924 11.704953465154869 -21.67583975028679 11.704953465154869
S 916.7175444646975 140.6194424889905 916.7175444646975 99.86886375845134
s 9.970886285131924 -11.704953465154869 21.67583975028679 -11.704953465154869
S 960.069223965271 59.11828502791217 960.069223965271 99.86886375845134
z" fill="none" stroke="none"></path>
<use xlink:href="#path-6u6ouax6xx2-1" x="0" y="0" stroke="#5400ff">
  <animateMotion begin="-3.5937347903761667s" dur="7.8125s" keyPoints="0;1" keyTimes="0;1" repeatCount="indefinite" calcMode="linear">
    <mpath xlink:href="#path48"></mpath>
  </animateMotion>
</use><path id="path49" d="M 962.038834062232 614.5234532116149
c 0 20.19219788627968 -4.940644163664176 5.79988662691012 -10.740530790574297 5.79988662691012
S 940.5577724810834 634.7156510978946 940.5577724810834 614.5234532116149
s 4.940644163664176 -5.79988662691012 10.740530790574297 -5.79988662691012
S 962.038834062232 594.3312553253352 962.038834062232 614.5234532116149
z" fill="none" stroke="none"></path>
<use xlink:href="#path-6u6ouax6xx2-2" x="0" y="0" stroke="#007dfb">
  <animateMotion begin="-7.600616364664255s" dur="7.8125s" keyPoints="1;0" keyTimes="0;1" repeatCount="indefinite" calcMode="linear">
    <mpath xlink:href="#path49"></mpath>
  </animateMotion>
</use><path id="path50" d="M 1016.030486472391 692.3834817305797
c 0 63.44532647772061 -15.523856478591211 18.22365760530273 -33.74751408389394 18.22365760530273
S 948.535458304603 755.8288082083003 948.535458304603 692.3834817305797
s 15.523856478591211 -18.22365760530273 33.74751408389394 -18.22365760530273
S 1016.030486472391 628.938155252859 1016.030486472391 692.3834817305797
z" fill="none" stroke="none"></path>
<use xlink:href="#path-6u6ouax6xx2-1" x="0" y="0" stroke="#007dfb">
  <animateMotion begin="-6.5542715298631835s" dur="7.8125s" keyPoints="1;0" keyTimes="0;1" repeatCount="indefinite" calcMode="linear">
    <mpath xlink:href="#path50"></mpath>
  </animateMotion>
</use><path id="path51" d="M 1002.8244697616332 178.54022995820173
c 0 27.780419133809136 -6.79733659657032 7.979482091626029 -14.77681868819635 7.979482091626029
S 973.2708323852404 206.32064909201088 973.2708323852404 178.54022995820173
s 6.79733659657032 -7.979482091626029 14.77681868819635 -7.979482091626029
S 1002.8244697616332 150.7598108243926 1002.8244697616332 178.54022995820173
z" fill="none" stroke="none"></path>
<use xlink:href="#path-6u6ouax6xx2-3" x="0" y="0" stroke="#5400ff">
  <animateMotion begin="-4.761255410515251s" dur="7.8125s" keyPoints="1;0" keyTimes="0;1" repeatCount="indefinite" calcMode="linear">
    <mpath xlink:href="#path51"></mpath>
  </animateMotion>
</use><path id="path52" d="M 1040.5483338564522 648.7813348500879
c 0 46.4045628574972 -11.354307933217399 13.3289701824726 -24.68327811569 13.3289701824726
S 991.1817776250722 695.1858977075851 991.1817776250722 648.7813348500879
s 11.354307933217399 -13.3289701824726 24.68327811569 -13.3289701824726
S 1040.5483338564522 602.3767719925906 1040.5483338564522 648.7813348500879
z" fill="none" stroke="none"></path>
<use xlink:href="#path-6u6ouax6xx2-1" x="0" y="0" stroke="#00ffaa">
  <animateMotion begin="-4.897433078524705s" dur="7.8125s" keyPoints="0;1" keyTimes="0;1" repeatCount="indefinite" calcMode="linear">
    <mpath xlink:href="#path52"></mpath>
  </animateMotion>
</use><path id="path53" d="M 1050.73382268547 1180.4894740294849
c 0 55.98667088299704 -13.698866279882253 16.0812778068183 -29.780144086700552 16.0812778068183
S 991.1735345120687 1236.476144912482 991.1735345120687 1180.4894740294849
s 13.698866279882253 -16.0812778068183 29.780144086700552 -16.0812778068183
S 1050.73382268547 1124.5028031464878 1050.73382268547 1180.4894740294849
z" fill="none" stroke="none"></path>
<use xlink:href="#path-6u6ouax6xx2-1" x="0" y="0" stroke="#5400ff">
  <animateMotion begin="-7.173525349441755s" dur="7.8125s" keyPoints="0;1" keyTimes="0;1" repeatCount="indefinite" calcMode="linear">
    <mpath xlink:href="#path53"></mpath>
  </animateMotion>
</use><path id="path54" d="M 1080.6897594298694 214.19418686074394
c 0 43.412058838882835 -10.622099503130906 12.469421155849325 -23.09152065898023 12.469421155849325
S 1034.5067181119089 257.60624569962675 1034.5067181119089 214.19418686074394
s 10.622099503130906 -12.469421155849325 23.09152065898023 -12.469421155849325
S 1080.6897594298694 170.7821280218611 1080.6897594298694 214.19418686074394
z" fill="none" stroke="none"></path>
<use xlink:href="#path-6u6ouax6xx2-3" x="0" y="0" stroke="#007dfb">
  <animateMotion begin="-7.069893238875335s" dur="7.8125s" keyPoints="0;1" keyTimes="0;1" repeatCount="indefinite" calcMode="linear">
    <mpath xlink:href="#path54"></mpath>
  </animateMotion>
</use><path id="path55" d="M 1094.471121316845 997.5744726914176
c 0 61.68591291165191 -15.093361669872275 17.71829413419789 -32.81165580407016 17.71829413419789
S 1028.8478097087047 1059.2603856030694 1028.8478097087047 997.5744726914176
s 15.093361669872275 -17.71829413419789 32.81165580407016 -17.71829413419789
S 1094.471121316845 935.8885597797656 1094.471121316845 997.5744726914176
z" fill="none" stroke="none"></path>
<use xlink:href="#path-6u6ouax6xx2-3" x="0" y="0" stroke="#5400ff">
  <animateMotion begin="-4.000356662186228s" dur="7.8125s" keyPoints="0;1" keyTimes="0;1" repeatCount="indefinite" calcMode="linear">
    <mpath xlink:href="#path55"></mpath>
  </animateMotion>
</use><path id="path56" d="M 1108.40343813057 683.804700345531
c 0 24.91256704871186 -6.09562810766354 7.155737343778939 -13.251365451442478 7.155737343778939
S 1081.900707227685 708.7172673942429 1081.900707227685 683.804700345531
s 6.09562810766354 -7.155737343778939 13.251365451442478 -7.155737343778939
S 1108.40343813057 658.8921332968192 1108.40343813057 683.804700345531
z" fill="none" stroke="none"></path>
<use xlink:href="#path-6u6ouax6xx2-2" x="0" y="0" stroke="#00ffaa">
  <animateMotion begin="-4.4752880801337565s" dur="7.8125s" keyPoints="1;0" keyTimes="0;1" repeatCount="indefinite" calcMode="linear">
    <mpath xlink:href="#path56"></mpath>
  </animateMotion>
</use><path id="path57" d="M 1127.415869967806 425.6729077564488
c 0 29.82231043902748 -7.296948298910978 8.565982785678106 -15.862931084589086 8.565982785678106
S 1095.690007798628 455.4952181954763 1095.690007798628 425.6729077564488
s 7.296948298910978 -8.565982785678106 15.862931084589086 -8.565982785678106
S 1127.415869967806 395.8505973174213 1127.415869967806 425.6729077564488
z" fill="none" stroke="none"></path>
<use xlink:href="#path-6u6ouax6xx2-2" x="0" y="0" stroke="#5400ff">
  <animateMotion begin="-6.506909383668114s" dur="7.8125s" keyPoints="1;0" keyTimes="0;1" repeatCount="indefinite" calcMode="linear">
    <mpath xlink:href="#path57"></mpath>
  </animateMotion>
</use><path id="path58" d="M 1151.3422211375855 743.5403245347225
c 0 54.33553568328994 -13.294865113996472 15.607015568604558 -28.901880682601032 15.607015568604558
S 1093.5384597723832 797.8758602180123 1093.5384597723832 743.5403245347225
s 13.294865113996472 -15.607015568604558 28.901880682601032 -15.607015568604558
S 1151.3422211375855 689.2047888514326 1151.3422211375855 743.5403245347225
z" fill="none" stroke="none"></path>
<use xlink:href="#path-6u6ouax6xx2-1" x="0" y="0" stroke="#5400ff">
  <animateMotion begin="-5.666487080035292s" dur="7.8125s" keyPoints="1;0" keyTimes="0;1" repeatCount="indefinite" calcMode="linear">
    <mpath xlink:href="#path58"></mpath>
  </animateMotion>
</use><path id="path59" d="M 1179.2241593765523 340.1662880409195
c 0 58.44850164568743 -14.301229126072453 16.788399408867665 -31.08962853494012 16.788399408867665
S 1117.044902306672 398.6147896866069 1117.044902306672 340.1662880409195
s 14.301229126072453 -16.788399408867665 31.08962853494012 -16.788399408867665
S 1179.2241593765523 281.71778639523205 1179.2241593765523 340.1662880409195
z" fill="none" stroke="none"></path>
<use xlink:href="#path-6u6ouax6xx2-1" x="0" y="0" stroke="#5400ff">
  <animateMotion begin="-0.3572547895339031s" dur="7.8125s" keyPoints="0;1" keyTimes="0;1" repeatCount="indefinite" calcMode="linear">
    <mpath xlink:href="#path59"></mpath>
  </animateMotion>
</use><path id="path60" d="M 1180.125293811771 1005.8604121743326
c 0 39.6868989356308 -9.710624207654345 11.399428417681188 -21.11005262533553 11.399428417681188
S 1137.9051885610997 1045.5473111099634 1137.9051885610997 1005.8604121743326
s 9.710624207654345 -11.399428417681188 21.11005262533553 -11.399428417681188
S 1180.125293811771 966.1735132387018 1180.125293811771 1005.8604121743326
z" fill="none" stroke="none"></path>
<use xlink:href="#path-6u6ouax6xx2-1" x="0" y="0" stroke="#00ffaa">
  <animateMotion begin="-0.3928766893292312s" dur="7.8125s" keyPoints="1;0" keyTimes="0;1" repeatCount="indefinite" calcMode="linear">
    <mpath xlink:href="#path60"></mpath>
  </animateMotion>
</use><path id="path61" d="M 1203.6220991745195 622.2431068696962
c 0 53.16207901734016 -13.007742738285357 15.269958866682812 -28.27770160496817 15.269958866682812
S 1147.0666959645832 675.4051858870364 1147.0666959645832 622.2431068696962
s 13.007742738285357 -15.269958866682812 28.27770160496817 -15.269958866682812
S 1203.6220991745195 569.0810278523561 1203.6220991745195 622.2431068696962
z" fill="none" stroke="none"></path>
<use xlink:href="#path-6u6ouax6xx2-1" x="0" y="0" stroke="#00ffaa">
  <animateMotion begin="-1.3149617598090315s" dur="7.8125s" keyPoints="0;1" keyTimes="0;1" repeatCount="indefinite" calcMode="linear">
    <mpath xlink:href="#path61"></mpath>
  </animateMotion>
</use><path id="path62" d="M 1229.6142373209507 278.94202716687374
c 0 53.267004640865174 -13.03341602914786 15.300097077695318 -28.333513106843178 15.300097077695318
S 1172.9472111072644 332.20903180773894 1172.9472111072644 278.94202716687374
s 13.03341602914786 -15.300097077695318 28.333513106843178 -15.300097077695318
S 1229.6142373209507 225.67502252600858 1229.6142373209507 278.94202716687374
z" fill="none" stroke="none"></path>
<use xlink:href="#path-6u6ouax6xx2-3" x="0" y="0" stroke="#00ffaa">
  <animateMotion begin="-0.4994133778614476s" dur="7.8125s" keyPoints="1;0" keyTimes="0;1" repeatCount="indefinite" calcMode="linear">
    <mpath xlink:href="#path62"></mpath>
  </animateMotion>
</use><path id="path63" d="M 1255.9937252063405 759.095309526629
c 0 65.25184866925932 -15.965877865882598 18.742552277340444 -34.70843014322304 18.742552277340444
S 1186.5768649198944 824.3471581958883 1186.5768649198944 759.095309526629
s 15.965877865882598 -18.742552277340444 34.70843014322304 -18.742552277340444
S 1255.9937252063405 693.8434608573697 1255.9937252063405 759.095309526629
z" fill="none" stroke="none"></path>
<use xlink:href="#path-6u6ouax6xx2-2" x="0" y="0" stroke="#5400ff">
  <animateMotion begin="-3.7638946631620933s" dur="7.8125s" keyPoints="1;0" keyTimes="0;1" repeatCount="indefinite" calcMode="linear">
    <mpath xlink:href="#path63"></mpath>
  </animateMotion>
</use><path id="path64" d="M 1250.6878913968221 852.4867873237965
c 0 42.128827853917755 -10.308117453618173 12.100833532508291 -22.408950986126467 12.100833532508291
S 1205.8699894245692 894.6156151777143 1205.8699894245692 852.4867873237965
s 10.308117453618173 -12.100833532508291 22.408950986126467 -12.100833532508291
S 1250.6878913968221 810.3579594698788 1250.6878913968221 852.4867873237965
z" fill="none" stroke="none"></path>
<use xlink:href="#path-6u6ouax6xx2-2" x="0" y="0" stroke="#00ffaa">
  <animateMotion begin="-0.3559527784088978s" dur="7.8125s" keyPoints="1;0" keyTimes="0;1" repeatCount="indefinite" calcMode="linear">
    <mpath xlink:href="#path64"></mpath>
  </animateMotion>
</use><path id="path65" d="M 1280.4808253363378 500.27956875588995
c 0 33.590025882035846 -8.2188361200726 9.648198923563488 -17.867035043636086 9.648198923563488
S 1244.7467552490655 533.8695946379258 1244.7467552490655 500.27956875588995
s 8.2188361200726 -9.648198923563488 17.867035043636086 -9.648198923563488
S 1280.4808253363378 466.6895428738541 1280.4808253363378 500.27956875588995
z" fill="none" stroke="none"></path>
<use xlink:href="#path-6u6ouax6xx2-3" x="0" y="0" stroke="#5400ff">
  <animateMotion begin="-2.6743040067669592s" dur="7.8125s" keyPoints="1;0" keyTimes="0;1" repeatCount="indefinite" calcMode="linear">
    <mpath xlink:href="#path65"></mpath>
  </animateMotion>
</use><path id="path66" d="M 1304.1269185745414 45.79165937028038
c 0 55.14096445425383 -13.491938111147213 15.838362130477165 -29.33030024162438 15.838362130477165
S 1245.4663180912926 100.9326238245342 1245.4663180912926 45.79165937028038
s 13.491938111147213 -15.838362130477165 29.33030024162438 -15.838362130477165
S 1304.1269185745414 -9.349305083973455 1304.1269185745414 45.79165937028038
z" fill="none" stroke="none"></path>
<use xlink:href="#path-6u6ouax6xx2-2" x="0" y="0" stroke="#00ffaa">
  <animateMotion begin="-6.020318491739248s" dur="7.8125s" keyPoints="1;0" keyTimes="0;1" repeatCount="indefinite" calcMode="linear">
    <mpath xlink:href="#path66"></mpath>
  </animateMotion>
</use><path id="path67" d="M 1318.424423290949 976.0727396837536
c 0 41.25135488856334 -10.093416621669753 11.848793425438407 -21.94221004710816 11.848793425438407
S 1274.5400031967329 1017.324094572317 1274.5400031967329 976.0727396837536
s 10.093416621669753 -11.848793425438407 21.94221004710816 -11.848793425438407
S 1318.424423290949 934.8213847951903 1318.424423290949 976.0727396837536
z" fill="none" stroke="none"></path>
<use xlink:href="#path-6u6ouax6xx2-1" x="0" y="0" stroke="#00ffaa">
  <animateMotion begin="-2.3535158569394263s" dur="7.8125s" keyPoints="1;0" keyTimes="0;1" repeatCount="indefinite" calcMode="linear">
    <mpath xlink:href="#path67"></mpath>
  </animateMotion>
</use><path id="path68" d="M 1327.1838622285404 1067.1751487145468
c 0 31.243203745639395 -7.644613682443681 8.974111714173018 -16.618725396616696 8.974111714173018
S 1293.9464114353073 1098.4183524601863 1293.9464114353073 1067.1751487145468
s 7.644613682443681 -8.974111714173018 16.618725396616696 -8.974111714173018
S 1327.1838622285404 1035.9319449689074 1327.1838622285404 1067.1751487145468
z" fill="none" stroke="none"></path>
<use xlink:href="#path-6u6ouax6xx2-2" x="0" y="0" stroke="#5400ff">
  <animateMotion begin="-1.4506631092255744s" dur="7.8125s" keyPoints="1;0" keyTimes="0;1" repeatCount="indefinite" calcMode="linear">
    <mpath xlink:href="#path68"></mpath>
  </animateMotion>
</use><path id="path69" d="M 1341.6022988248662 838.5170184441522
c 0 29.291729508106904 -7.167125305175094 8.413581879988154 -15.580707185163247 8.413581879988154
S 1310.4408844545399 867.8087479522591 1310.4408844545399 838.5170184441522
s 7.167125305175094 -8.413581879988154 15.580707185163247 -8.413581879988154
S 1341.6022988248662 809.2252889360453 1341.6022988248662 838.5170184441522
z" fill="none" stroke="none"></path>
<use xlink:href="#path-6u6ouax6xx2-3" x="0" y="0" stroke="#5400ff">
  <animateMotion begin="-3.354253772389302s" dur="7.8125s" keyPoints="0;1" keyTimes="0;1" repeatCount="indefinite" calcMode="linear">
    <mpath xlink:href="#path69"></mpath>
  </animateMotion>
</use><path id="path70" d="M 1370.1500408258742 50.19494807005863
c 0 40.47999506440262 -9.90467964341766 11.627232624881604 -21.531912268299266 11.627232624881604
S 1327.0862162892756 90.67494313446124 1327.0862162892756 50.19494807005863
s 9.90467964341766 -11.627232624881604 21.531912268299266 -11.627232624881604
S 1370.1500408258742 9.714953005656007 1370.1500408258742 50.19494807005863
z" fill="none" stroke="none"></path>
<use xlink:href="#path-6u6ouax6xx2-1" x="0" y="0" stroke="#007dfb">
  <animateMotion begin="-6.582784948587743s" dur="7.8125s" keyPoints="1;0" keyTimes="0;1" repeatCount="indefinite" calcMode="linear">
    <mpath xlink:href="#path70"></mpath>
  </animateMotion>
</use><path id="path71" d="M 1410.7832007034096 53.74769863309389
c 0 64.79696154667286 -15.854575697590166 18.611893210214546 -34.46646890780471 18.611893210214546
S 1341.8502628878002 118.54466017976675 1341.8502628878002 53.74769863309389
s 15.854575697590166 -18.611893210214546 34.46646890780471 -18.611893210214546
S 1410.7832007034096 -11.049262913578971 1410.7832007034096 53.74769863309389
z" fill="none" stroke="none"></path>
<use xlink:href="#path-6u6ouax6xx2-2" x="0" y="0" stroke="#00ffaa">
  <animateMotion begin="-1.5529325832614338s" dur="7.8125s" keyPoints="1;0" keyTimes="0;1" repeatCount="indefinite" calcMode="linear">
    <mpath xlink:href="#path71"></mpath>
  </animateMotion>
</use><path id="path72" d="M 1409.0378468557974 507.11855961081267
c 0 39.96996343408372 -9.779884670041762 11.480734177875114 -21.260618847916874 11.480734177875114
S 1366.5166091599635 547.0885230448964 1366.5166091599635 507.11855961081267
s 9.779884670041762 -11.480734177875114 21.260618847916874 -11.480734177875114
S 1409.0378468557974 467.1485961767289 1409.0378468557974 507.11855961081267
z" fill="none" stroke="none"></path>
<use xlink:href="#path-6u6ouax6xx2-1" x="0" y="0" stroke="#00ffaa">
  <animateMotion begin="-5.832120514366269s" dur="7.8125s" keyPoints="0;1" keyTimes="0;1" repeatCount="indefinite" calcMode="linear">
    <mpath xlink:href="#path72"></mpath>
  </animateMotion>
</use><path id="path73" d="M 1426.8592376537933 1235.8453690949657
c 0 24.562115347080127 -6.009879287051519 7.055075684799611 -13.06495497185113 7.055075684799611
S 1400.729327710091 1260.4074844420459 1400.729327710091 1235.8453690949657
s 6.009879287051519 -7.055075684799611 13.06495497185113 -7.055075684799611
S 1426.8592376537933 1211.2832537478855 1426.8592376537933 1235.8453690949657
z" fill="none" stroke="none"></path>
<use xlink:href="#path-6u6ouax6xx2-1" x="0" y="0" stroke="#5400ff">
  <animateMotion begin="-6.198726384247009s" dur="7.8125s" keyPoints="1;0" keyTimes="0;1" repeatCount="indefinite" calcMode="linear">
    <mpath xlink:href="#path73"></mpath>
  </animateMotion>
</use><path id="path74" d="M 1446.4597531088348 199.36988969952878
c 0 32.762242230895176 -8.016293311814776 9.410431279086913 -17.42672459090169 9.410431279086913
S 1411.6063039270316 232.13213193042395 1411.6063039270316 199.36988969952878
s 8.016293311814776 -9.410431279086913 17.42672459090169 -9.410431279086913
S 1446.4597531088348 166.60764746863362 1446.4597531088348 199.36988969952878
z" fill="none" stroke="none"></path>
<use xlink:href="#path-6u6ouax6xx2-3" x="0" y="0" stroke="#00ffaa">
  <animateMotion begin="-2.789772892439096s" dur="7.8125s" keyPoints="1;0" keyTimes="0;1" repeatCount="indefinite" calcMode="linear">
    <mpath xlink:href="#path74"></mpath>
  </animateMotion>
</use><path id="path75" d="M 1469.6914938959283 1114.854446906336
c 0 61.18597992450552 -14.971037641102411 17.574696361294137 -32.54573400239655 17.574696361294137
S 1404.6000258911351 1176.0404268308416 1404.6000258911351 1114.854446906336
s 14.971037641102411 -17.574696361294137 32.54573400239655 -17.574696361294137
S 1469.6914938959283 1053.6684669818305 1469.6914938959283 1114.854446906336
z" fill="none" stroke="none"></path>
<use xlink:href="#path-6u6ouax6xx2-3" x="0" y="0" stroke="#5400ff">
  <animateMotion begin="-4.970581348398766s" dur="7.8125s" keyPoints="1;0" keyTimes="0;1" repeatCount="indefinite" calcMode="linear">
    <mpath xlink:href="#path75"></mpath>
  </animateMotion>
</use><path id="path76" d="M 1489.313805367815 980.8701666636534
c 0 54.23068213583991 -13.269209458769339 15.576898060294445 -28.846107519063786 15.576898060294445
S 1431.6215903296875 1035.1008487994934 1431.6215903296875 980.8701666636534
s 13.269209458769339 -15.576898060294445 28.846107519063786 -15.576898060294445
S 1489.313805367815 926.6394845278135 1489.313805367815 980.8701666636534
z" fill="none" stroke="none"></path>
<use xlink:href="#path-6u6ouax6xx2-1" x="0" y="0" stroke="#00ffaa">
  <animateMotion begin="-0.6106802151617102s" dur="7.8125s" keyPoints="1;0" keyTimes="0;1" repeatCount="indefinite" calcMode="linear">
    <mpath xlink:href="#path76"></mpath>
  </animateMotion>
</use><path id="path77" d="M 1496.9139600381 1106.2361945992295
c 0 35.76452934908653 -8.75089547903181 10.272790344950387 -19.0236858239822 10.272790344950387
S 1458.8665883901353 1142.0007239483161 1458.8665883901353 1106.2361945992295
s 8.75089547903181 -10.272790344950387 19.0236858239822 -10.272790344950387
S 1496.9139600381 1070.471665250143 1496.9139600381 1106.2361945992295
z" fill="none" stroke="none"></path>
<use xlink:href="#path-6u6ouax6xx2-2" x="0" y="0" stroke="#5400ff">
  <animateMotion begin="-3.0339284109887985s" dur="7.8125s" keyPoints="1;0" keyTimes="0;1" repeatCount="indefinite" calcMode="linear">
    <mpath xlink:href="#path77"></mpath>
  </animateMotion>
</use><path id="path78" d="M 1523.630869182614 713.0510555868104
c 0 55.18567296139294 -13.502877426723801 15.851203935719248 -29.35408136244305 15.851203935719248
S 1464.9227064577278 768.2367285482034 1464.9227064577278 713.0510555868104
s 13.502877426723801 -15.851203935719248 29.35408136244305 -15.851203935719248
S 1523.630869182614 657.8653826254175 1523.630869182614 713.0510555868104
z" fill="none" stroke="none"></path>
<use xlink:href="#path-6u6ouax6xx2-1" x="0" y="0" stroke="#00ffaa">
  <animateMotion begin="-3.9139276467036463s" dur="7.8125s" keyPoints="0;1" keyTimes="0;1" repeatCount="indefinite" calcMode="linear">
    <mpath xlink:href="#path78"></mpath>
  </animateMotion>
</use><path id="path79" d="M 1553.508762053475 601.6506994317622
c 0 48.479981830656904 -11.862123213884134 13.925101164124856 -25.78722437800899 13.925101164124856
S 1501.9343132974573 650.1306812624191 1501.9343132974573 601.6506994317622
s 11.862123213884134 -13.925101164124856 25.78722437800899 -13.925101164124856
S 1553.508762053475 553.1707176011053 1553.508762053475 601.6506994317622
z" fill="none" stroke="none"></path>
<use xlink:href="#path-6u6ouax6xx2-2" x="0" y="0" stroke="#00ffaa">
  <animateMotion begin="-2.3947405008744194s" dur="7.8125s" keyPoints="1;0" keyTimes="0;1" repeatCount="indefinite" calcMode="linear">
    <mpath xlink:href="#path79"></mpath>
  </animateMotion>
</use><path id="path80" d="M 1564.415082161922 125.43039902638168
c 0 47.388771128099066 -11.595124850492324 13.61166830275186 -25.206793153244185 13.61166830275186
S 1514.0014958554336 172.81917015448073 1514.0014958554336 125.43039902638168
s 11.595124850492324 -13.61166830275186 25.206793153244185 -13.61166830275186
S 1564.415082161922 78.04162789828261 1564.415082161922 125.43039902638168
z" fill="none" stroke="none"></path>
<use xlink:href="#path-6u6ouax6xx2-2" x="0" y="0" stroke="#00ffaa">
  <animateMotion begin="-0.21274781817302685s" dur="7.8125s" keyPoints="1;0" keyTimes="0;1" repeatCount="indefinite" calcMode="linear">
    <mpath xlink:href="#path80"></mpath>
  </animateMotion>
</use><path id="path81" d="M 1586.5479741293568 697.3327115897524
c 0 51.04690731065949 -12.490200724948597 14.66240954667879 -27.15261027162739 14.66240954667879
S 1532.2427535861023 748.379618900412 1532.2427535861023 697.3327115897524
s 12.490200724948597 -14.66240954667879 27.15261027162739 -14.66240954667879
S 1586.5479741293568 646.2858042790929 1586.5479741293568 697.3327115897524
z" fill="none" stroke="none"></path>
<use xlink:href="#path-6u6ouax6xx2-2" x="0" y="0" stroke="#5400ff">
  <animateMotion begin="-3.9322775499119023s" dur="7.8125s" keyPoints="1;0" keyTimes="0;1" repeatCount="indefinite" calcMode="linear">
    <mpath xlink:href="#path81"></mpath>
  </animateMotion>
</use><path id="path82" d="M 1607.1695842881027 785.1789494678834
c 0 51.818000558524616 -12.678872477085807 14.88389377744856 -27.562766254534367 14.88389377744856
S 1552.044051779034 836.9969500264081 1552.044051779034 785.1789494678834
s 12.678872477085807 -14.88389377744856 27.562766254534367 -14.88389377744856
S 1607.1695842881027 733.3609489093587 1607.1695842881027 785.1789494678834
z" fill="none" stroke="none"></path>
<use xlink:href="#path-6u6ouax6xx2-2" x="0" y="0" stroke="#007dfb">
  <animateMotion begin="-7.014880596774777s" dur="7.8125s" keyPoints="1;0" keyTimes="0;1" repeatCount="indefinite" calcMode="linear">
    <mpath xlink:href="#path82"></mpath>
  </animateMotion>
</use><path id="path83" d="M 1628.9700930515671 580.680237214383
c 0 57.76563604253341 -14.134144989130514 16.592257161153213 -30.726402150283725 16.592257161153213
S 1567.5172887509996 638.4458732569165 1567.5172887509996 580.680237214383
s 14.134144989130514 -16.592257161153213 30.726402150283725 -16.592257161153213
S 1628.9700930515671 522.9146011718497 1628.9700930515671 580.680237214383
z" fill="none" stroke="none"></path>
<use xlink:href="#path-6u6ouax6xx2-2" x="0" y="0" stroke="#00ffaa">
  <animateMotion begin="-0.31907598395424475s" dur="7.8125s" keyPoints="0;1" keyTimes="0;1" repeatCount="indefinite" calcMode="linear">
    <mpath xlink:href="#path83"></mpath>
  </animateMotion>
</use><path id="path84" d="M 1626.8903068310674 1023.61069000636
c 0 38.50710357632137 -9.421950875057357 11.060551027241246 -20.4825019022986 11.060551027241246
S 1585.9253030264704 1062.1177935826813 1585.9253030264704 1023.61069000636
s 9.421950875057357 -11.060551027241246 20.4825019022986 -11.060551027241246
S 1626.8903068310674 985.1035864300386 1626.8903068310674 1023.61069000636
z" fill="none" stroke="none"></path>
<use xlink:href="#path-6u6ouax6xx2-3" x="0" y="0" stroke="#007dfb">
  <animateMotion begin="-5.064502843958058s" dur="7.8125s" keyPoints="1;0" keyTimes="0;1" repeatCount="indefinite" calcMode="linear">
    <mpath xlink:href="#path84"></mpath>
  </animateMotion>
</use><path id="path85" d="M 1653.6464374885782 929.1675275130378
c 0 21.938958287727242 -5.368042985294963 6.30161567838974 -11.669658663684704 6.30161567838974
S 1630.3071201612088 951.1064858007651 1630.3071201612088 929.1675275130378
s 5.368042985294963 -6.30161567838974 11.669658663684704 -6.30161567838974
S 1653.6464374885782 907.2285692253106 1653.6464374885782 929.1675275130378
z" fill="none" stroke="none"></path>
<use xlink:href="#path-6u6ouax6xx2-3" x="0" y="0" stroke="#5400ff">
  <animateMotion begin="-5.356754650545571s" dur="7.8125s" keyPoints="0;1" keyTimes="0;1" repeatCount="indefinite" calcMode="linear">
    <mpath xlink:href="#path85"></mpath>
  </animateMotion>
</use><path id="path86" d="M 1676.1501127609433 1088.4656037255622
c 0 41.06630827201639 -10.048139258046564 11.795641737706838 -21.843780995753402 11.795641737706838
S 1632.4625507694366 1129.5319119975786 1632.4625507694366 1088.4656037255622
s 10.048139258046564 -11.795641737706838 21.843780995753402 -11.795641737706838
S 1676.1501127609433 1047.3992954535458 1676.1501127609433 1088.4656037255622
z" fill="none" stroke="none"></path>
<use xlink:href="#path-6u6ouax6xx2-1" x="0" y="0" stroke="#00ffaa">
  <animateMotion begin="-2.6187043437633455s" dur="7.8125s" keyPoints="0;1" keyTimes="0;1" repeatCount="indefinite" calcMode="linear">
    <mpath xlink:href="#path86"></mpath>
  </animateMotion>
</use><path id="path87" d="M 1685.616775862371 665.481747181808
c 0 23.11570664325496 -5.655970774413447 6.6396178656157865 -12.295588640029234 6.6396178656157865
S 1661.0255985823123 688.597453825063 1661.0255985823123 665.481747181808
s 5.655970774413447 -6.6396178656157865 12.295588640029234 -6.6396178656157865
S 1685.616775862371 642.3660405385531 1685.616775862371 665.481747181808
z" fill="none" stroke="none"></path>
<use xlink:href="#path-6u6ouax6xx2-1" x="0" y="0" stroke="#007dfb">
  <animateMotion begin="-5.07572114256169s" dur="7.8125s" keyPoints="1;0" keyTimes="0;1" repeatCount="indefinite" calcMode="linear">
    <mpath xlink:href="#path87"></mpath>
  </animateMotion>
</use><path id="path88" d="M 1706.989219968074 135.4551394152112
c 0 28.2092869658431 -6.902272342706289 8.102667532742167 -15.004939875448455 8.102667532742167
S 1676.9793402171772 163.66442638105428 1676.9793402171772 135.4551394152112
s 6.902272342706289 -8.102667532742167 15.004939875448455 -8.102667532742167
S 1706.989219968074 107.2458524493681 1706.989219968074 135.4551394152112
z" fill="none" stroke="none"></path>
<use xlink:href="#path-6u6ouax6xx2-1" x="0" y="0" stroke="#00ffaa">
  <animateMotion begin="-3.082195090448905s" dur="7.8125s" keyPoints="0;1" keyTimes="0;1" repeatCount="indefinite" calcMode="linear">
    <mpath xlink:href="#path88"></mpath>
  </animateMotion>
</use><path id="path89" d="M 1722.5801898643226 356.2337812479312
c 0 25.207972318658992 -6.167908120522944 7.24058779365737 -13.408495914180314 7.24058779365737
S 1695.763198035962 381.4417535665902 1695.763198035962 356.2337812479312
s 6.167908120522944 -7.24058779365737 13.408495914180314 -7.24058779365737
S 1722.5801898643226 331.02580892927216 1722.5801898643226 356.2337812479312
z" fill="none" stroke="none"></path>
<use xlink:href="#path-6u6ouax6xx2-3" x="0" y="0" stroke="#007dfb">
  <animateMotion begin="-2.6676783965483617s" dur="7.8125s" keyPoints="0;1" keyTimes="0;1" repeatCount="indefinite" calcMode="linear">
    <mpath xlink:href="#path89"></mpath>
  </animateMotion>
</use><path id="path90" d="M 1737.4562166104217 1165.4878693936523
c 0 38.52757671113292 -9.42696025910699 11.066431608516904 -20.49339186762389 11.066431608516904
S 1696.469432875174 1204.0154461047853 1696.469432875174 1165.4878693936523
s 9.42696025910699 -11.066431608516904 20.49339186762389 -11.066431608516904
S 1737.4562166104217 1126.9602926825194 1737.4562166104217 1165.4878693936523
z" fill="none" stroke="none"></path>
<use xlink:href="#path-6u6ouax6xx2-3" x="0" y="0" stroke="#007dfb">
  <animateMotion begin="-3.4460773128572373s" dur="7.8125s" keyPoints="0;1" keyTimes="0;1" repeatCount="indefinite" calcMode="linear">
    <mpath xlink:href="#path90"></mpath>
  </animateMotion>
</use><path id="path91" d="M 1768.644325201735 762.6681205729546
c 0 49.11618626593176 -12.01779025655777 14.107840735959122 -26.125630992516893 14.107840735959122
S 1716.3930632167014 811.7843068388864 1716.3930632167014 762.6681205729546
s 12.01779025655777 -14.107840735959122 26.125630992516893 -14.107840735959122
S 1768.644325201735 713.5519343070229 1768.644325201735 762.6681205729546
z" fill="none" stroke="none"></path>
<use xlink:href="#path-6u6ouax6xx2-2" x="0" y="0" stroke="#00ffaa">
  <animateMotion begin="-6.554891725136444s" dur="7.8125s" keyPoints="1;0" keyTimes="0;1" repeatCount="indefinite" calcMode="linear">
    <mpath xlink:href="#path91"></mpath>
  </animateMotion>
</use><path id="path92" d="M 1794.1384903901717 297.0864873593707
c 0 59.548581391309234 -14.570397574469279 17.104379761333504 -31.67477733580278 17.104379761333504
S 1730.7889357185663 356.63506875068 1730.7889357185663 297.0864873593707
s 14.570397574469279 -17.104379761333504 31.67477733580278 -17.104379761333504
S 1794.1384903901717 237.5379059680615 1794.1384903901717 297.0864873593707
z" fill="none" stroke="none"></path>
<use xlink:href="#path-6u6ouax6xx2-3" x="0" y="0" stroke="#5400ff">
  <animateMotion begin="-2.2645914857314375s" dur="7.8125s" keyPoints="0;1" keyTimes="0;1" repeatCount="indefinite" calcMode="linear">
    <mpath xlink:href="#path92"></mpath>
  </animateMotion>
</use><path id="path93" d="M 1811.4457624308543 50.49580461300358
c 0 56.2405238880454 -13.760979249202597 16.154193031672616 -29.91517228087521 16.154193031672616
S 1751.615417869104 106.73632850104897 1751.615417869104 50.49580461300358
s 13.760979249202597 -16.154193031672616 29.91517228087521 -16.154193031672616
S 1811.4457624308543 -5.744719275041824 1811.4457624308543 50.49580461300358
z" fill="none" stroke="none"></path>
<use xlink:href="#path-6u6ouax6xx2-2" x="0" y="0" stroke="#00ffaa">
  <animateMotion begin="-2.452467034771413s" dur="7.8125s" keyPoints="1;0" keyTimes="0;1" repeatCount="indefinite" calcMode="linear">
    <mpath xlink:href="#path93"></mpath>
  </animateMotion>
</use><path id="path94" d="M 1828.9578951162998 822.3788075983343
c 0 20.841629303472505 -5.099547595530506 5.986425438231465 -11.08597303376197 5.986425438231465
S 1806.7859490487758 843.2204369018068 1806.7859490487758 822.3788075983343
s 5.099547595530506 -5.986425438231465 11.08597303376197 -5.986425438231465
S 1828.9578951162998 801.5371782948619 1828.9578951162998 822.3788075983343
z" fill="none" stroke="none"></path>
<use xlink:href="#path-6u6ouax6xx2-1" x="0" y="0" stroke="#5400ff">
  <animateMotion begin="-5.443652101958083s" dur="7.8125s" keyPoints="0;1" keyTimes="0;1" repeatCount="indefinite" calcMode="linear">
    <mpath xlink:href="#path94"></mpath>
  </animateMotion>
</use><path id="path95" d="M 1837.579506718213 902.8285086139564
c 0 19.710575445757865 -4.82280037502586 5.661548266334706 -10.484348641360565 5.661548266334706
S 1816.6108094354918 922.5390840597142 1816.6108094354918 902.8285086139564
s 4.82280037502586 -5.661548266334706 10.484348641360565 -5.661548266334706
S 1837.579506718213 883.1179331681985 1837.579506718213 902.8285086139564
z" fill="none" stroke="none"></path>
<use xlink:href="#path-6u6ouax6xx2-3" x="0" y="0" stroke="#00ffaa">
  <animateMotion begin="-1.5279900631445502s" dur="7.8125s" keyPoints="1;0" keyTimes="0;1" repeatCount="indefinite" calcMode="linear">
    <mpath xlink:href="#path95"></mpath>
  </animateMotion>
</use><path id="path96" d="M 1868.6004631652324 430.46840328861975
c 0 43.322271427605244 -10.600130242924687 12.443631154737677 -23.043761397662365 12.443631154737677
S 1822.5129403699077 473.790674716225 1822.5129403699077 430.46840328861975
s 10.600130242924687 -12.443631154737677 23.043761397662365 -12.443631154737677
S 1868.6004631652324 387.1461318610145 1868.6004631652324 430.46840328861975
z" fill="none" stroke="none"></path>
<use xlink:href="#path-6u6ouax6xx2-1" x="0" y="0" stroke="#007dfb">
  <animateMotion begin="-4.8824672240154445s" dur="7.8125s" keyPoints="1;0" keyTimes="0;1" repeatCount="indefinite" calcMode="linear">
    <mpath xlink:href="#path96"></mpath>
  </animateMotion>
</use><path id="path97" d="M 1872.7282049249616 900.3991431328785
c 0 35.83335252339442 -8.767735191894376 10.292558703528183 -19.06029389542256 10.292558703528183
S 1834.6076171341165 936.2324956562729 1834.6076171341165 900.3991431328785
s 8.767735191894376 -10.292558703528183 19.06029389542256 -10.292558703528183
S 1872.7282049249616 864.5657906094841 1872.7282049249616 900.3991431328785
z" fill="none" stroke="none"></path>
<use xlink:href="#path-6u6ouax6xx2-1" x="0" y="0" stroke="#5400ff">
  <animateMotion begin="-5.998982414228318s" dur="7.8125s" keyPoints="0;1" keyTimes="0;1" repeatCount="indefinite" calcMode="linear">
    <mpath xlink:href="#path97"></mpath>
  </animateMotion>
</use><path id="path98" d="M 1903.293628356866 206.15465878847328
c 0 44.187178325576284 -10.811756398811218 12.69206185947404 -23.503818258285257 12.69206185947404
S 1856.2859918402955 250.34183711404955 1856.2859918402955 206.15465878847328
s 10.811756398811218 -12.69206185947404 23.503818258285257 -12.69206185947404
S 1903.293628356866 161.96748046289702 1903.293628356866 206.15465878847328
z" fill="none" stroke="none"></path>
<use xlink:href="#path-6u6ouax6xx2-2" x="0" y="0" stroke="#00ffaa">
  <animateMotion begin="-3.6445402846519945s" dur="7.8125s" keyPoints="1;0" keyTimes="0;1" repeatCount="indefinite" calcMode="linear">
    <mpath xlink:href="#path98"></mpath>
  </animateMotion>
</use><path id="path99" d="M 1912.504244473244 1076.0658872248418
c 0 22.669083958790104 -5.546690755874174 6.511332626460987 -12.058023382335161 6.511332626460987
S 1888.3881977085734 1098.7349711836318 1888.3881977085734 1076.0658872248418
s 5.546690755874174 -6.511332626460987 12.058023382335161 -6.511332626460987
S 1912.504244473244 1053.3968032660518 1912.504244473244 1076.0658872248418
z" fill="none" stroke="none"></path>
<use xlink:href="#path-6u6ouax6xx2-3" x="0" y="0" stroke="#5400ff">
  <animateMotion begin="-6.783015770683217s" dur="7.8125s" keyPoints="0;1" keyTimes="0;1" repeatCount="indefinite" calcMode="linear">
    <mpath xlink:href="#path99"></mpath>
  </animateMotion>
</use></g>
</svg>